<?xml version="1.0" encoding="UTF-8"?>
<svg id="Layer_1" xmlns="http://www.w3.org/2000/svg" version="1.1" viewBox="0 0 235.32 89.44">
  <!-- Generator: Adobe Illustrator 30.1.0, SVG Export Plug-In . SVG Version: 2.1.1 Build 136)  -->
  <defs>
    <style>
      .st0 {
        fill: #fff;
      }

      .st1 {
        fill: #767866;
      }
    </style>
  </defs>
  <g>
    <path class="st0" d="M74.57,51.44h-4.25v-24.59h7.07c7.5,0,9.28,4.11,9.28,7.89s-1.96,7.82-9.28,7.82h-2.82v8.89ZM74.57,39.27h2.78c3.39,0,5.21-1.5,5.21-4.57,0-2.43-.86-4.53-5.25-4.53h-2.75v9.1Z"/>
    <path class="st0" d="M87.02,42.48c0-6.1,4.21-9.42,9.32-9.42s9.32,3.32,9.32,9.42-4.21,9.42-9.32,9.42-9.32-3.28-9.32-9.42M91.06,42.48c0,4.21,2.28,6.43,5.28,6.43s5.28-2.21,5.28-6.43-2.25-6.43-5.28-6.43-5.28,2.18-5.28,6.43"/>
    <path class="st0" d="M117.79,36.41c-3.82-.39-6.6,2.25-6.6,5.53v9.5h-4v-17.85h4l-.29,3.39h.32c1.32-2.68,3.68-4.18,6.6-3.93l-.04,3.36Z"/>
    <path class="st0" d="M130.47,51.44c-6.85.07-8.46-1.68-8.46-6.78v-8.57h-2.86v-2.5h2.86v-4.57l4-1.14v5.71h4.46v2.5h-4.46v7.6c0,4.21.32,4.89,4.46,4.93v2.82Z"/>
    <path class="st0" d="M131.07,42.48c0-6.1,4.21-9.42,9.32-9.42s9.32,3.32,9.32,9.42-4.21,9.42-9.32,9.42-9.32-3.28-9.32-9.42M135.11,42.48c0,4.21,2.28,6.43,5.28,6.43s5.28-2.21,5.28-6.43-2.25-6.43-5.28-6.43-5.28,2.18-5.28,6.43"/>
    <path class="st0" d="M151.24,51.44v-24.63h8.67c5.39,0,8.35,1.89,8.35,6.14,0,3.11-2.21,4.82-4.03,5.46v.25c2.68.61,4.96,2.82,4.96,6,0,4.03-3.03,6.78-9.17,6.78h-8.78ZM155.49,37.41h4.46c2.68,0,4.36-1.39,4.36-3.68s-1.11-3.61-4.57-3.61h-4.25v7.28ZM165.06,44.02c0-2.36-2.07-4.18-5.1-4.18h-4.46v8.28h4.43c3.53,0,5.14-1.61,5.14-4.1"/>
    <path class="st0" d="M190.08,48.76v2.61c-4.61.54-5.43-1.46-5.75-4.11h-.32c-1.64,3.11-4.96,4.68-7.96,4.68-3.28,0-6.21-1.86-6.21-5.5,0-7.75,14.24-3.28,14.24-7.28,0-2.53-2.28-3.5-4.57-3.5-2.32-.04-4.68,1.14-4.71,3.57h-3.86c0-3.68,3.39-6.18,8.57-6.18,6.35,0,8.57,2.86,8.57,6.82v6.1c0,2.14-.04,2.93,2,2.78M177.62,49.59c2.89,0,6.46-2.11,6.46-6.18v-.89c-2.82,2.14-10.14-.14-10.14,4.03,0,2.04,1.68,3.03,3.68,3.03"/>
    <path class="st0" d="M189.12,33.59h4.03l5.18,14.03h.29l4.93-14.03h4.03l-6.93,17.85c-1.5,3.86-2.71,7.64-9.82,7.64v-2.86c3.57.14,4.89-2.14,5.5-4.78l-7.21-17.85Z"/>
    <path class="st0" d="M108.85,58.93c-.21-.91-.6-1.56-1.16-1.95-.57-.39-1.31-.58-2.22-.58-.65,0-1.2.13-1.67.39-.47.26-.85.61-1.15,1.04-.3.44-.53.94-.67,1.51-.14.57-.22,1.17-.22,1.81,0,.6.06,1.18.19,1.76.12.58.33,1.09.62,1.54.29.45.68.82,1.16,1.1.49.28,1.1.42,1.83.42.46,0,.87-.07,1.25-.22.38-.15.71-.36.99-.62.28-.26.52-.57.72-.93.19-.36.34-.75.44-1.18h1.06c-.12.52-.29,1.01-.52,1.47-.23.46-.53.87-.9,1.21-.37.35-.82.62-1.36.83-.53.2-1.15.31-1.87.31-.82,0-1.53-.15-2.12-.45-.59-.3-1.07-.71-1.44-1.23-.37-.52-.64-1.11-.81-1.8-.17-.68-.25-1.4-.25-2.17,0-1.02.13-1.89.38-2.61.25-.72.6-1.3,1.05-1.75.45-.45.97-.78,1.58-.98.61-.2,1.27-.31,1.98-.31.55,0,1.06.07,1.53.22.47.14.89.36,1.25.65.36.29.66.64.89,1.07.23.42.39.91.48,1.47h-1.04Z"/>
    <path class="st0" d="M114.92,66.75c-.5-.01-.96-.1-1.39-.27-.43-.17-.81-.42-1.13-.76-.32-.34-.58-.76-.77-1.27-.19-.51-.28-1.1-.28-1.77,0-.57.07-1.1.22-1.59.15-.49.37-.92.67-1.29.3-.37.67-.66,1.12-.87.45-.21.97-.32,1.56-.32s1.13.11,1.58.32c.45.21.82.5,1.12.86.3.36.52.79.66,1.29.14.5.22,1.03.22,1.59,0,.62-.08,1.17-.25,1.67-.17.5-.41.92-.72,1.28-.31.36-.69.63-1.13.83-.44.19-.93.29-1.47.29M117.55,62.69c0-.46-.05-.88-.15-1.28-.1-.4-.25-.74-.46-1.04-.21-.29-.48-.52-.8-.69-.33-.17-.73-.25-1.21-.25s-.87.09-1.2.28c-.33.18-.6.43-.81.73-.21.3-.36.65-.46,1.04-.1.39-.15.8-.15,1.21,0,.48.06.92.17,1.32.11.4.28.75.5,1.04.22.29.49.51.82.67.33.16.71.24,1.13.24.47,0,.87-.09,1.2-.28.33-.18.6-.43.81-.74.21-.31.36-.66.46-1.04.1-.39.15-.79.15-1.21"/>
    <path class="st0" d="M121.03,66.55h-.89v-7.72h.89v1.07c.36-.38.73-.69,1.11-.92.38-.24.84-.36,1.38-.36.48,0,.92.08,1.33.25.41.16.75.45,1.03.86.19.28.3.56.34.86.03.29.05.6.05.92v5.05h-.89v-5.04c0-.7-.15-1.22-.46-1.56-.31-.35-.82-.52-1.54-.52-.28,0-.53.04-.76.13-.23.08-.43.2-.62.34-.18.14-.34.3-.47.48-.13.18-.23.37-.3.57-.09.25-.14.49-.16.72-.02.23-.03.48-.03.75v4.16Z"/>
    <path class="st0" d="M128.95,64.13c.14.67.39,1.13.75,1.41.36.27.88.41,1.56.41.33,0,.61-.04.85-.12.24-.08.43-.19.59-.32.15-.13.27-.29.35-.45s.12-.35.12-.54c0-.38-.12-.66-.37-.84-.24-.18-.55-.33-.92-.43-.37-.1-.77-.19-1.19-.27-.43-.07-.82-.19-1.19-.34-.37-.15-.67-.36-.92-.64-.24-.28-.37-.67-.37-1.18,0-.65.24-1.17.71-1.59.47-.41,1.14-.62,2-.62s1.51.19,2.03.56c.52.37.84,1,.95,1.87h-.91c-.08-.6-.31-1.02-.68-1.26-.37-.24-.84-.37-1.41-.37s-1,.12-1.3.37c-.3.24-.45.56-.45.96,0,.35.12.61.37.8.24.18.55.33.92.45.37.11.76.22,1.19.31.43.09.82.22,1.19.38.37.16.67.38.92.66.24.28.37.67.37,1.16,0,.37-.08.69-.24.98-.16.28-.38.52-.66.71-.28.19-.61.33-.99.42-.38.09-.8.14-1.26.14s-.86-.07-1.21-.2c-.35-.13-.65-.32-.9-.56-.25-.24-.44-.52-.58-.83-.14-.32-.22-.66-.24-1.03h.91Z"/>
    <path class="st0" d="M138.59,66.58c-.11.02-.25.05-.43.1-.18.05-.38.07-.6.07-.45,0-.79-.11-1.02-.34-.23-.22-.35-.62-.35-1.2v-5.65h-1.09v-.75h1.09v-2.15h.89v2.15h1.45v.75h-1.45v5.29c0,.19,0,.35.01.49,0,.14.04.25.09.34.05.09.13.15.23.19.1.04.25.06.44.06.12,0,.24,0,.37-.03.12-.02.25-.04.37-.07v.73Z"/>
    <path class="st0" d="M140.96,66.55h-.89v-7.72h.89v1.45h.03c.25-.62.57-1.05.96-1.29.39-.24.91-.36,1.56-.36v.97c-.51,0-.92.07-1.25.24-.33.17-.59.4-.78.69-.19.29-.33.63-.4,1.02-.07.39-.11.8-.11,1.23v3.78Z"/>
    <path class="st0" d="M150.21,58.83h.89v7.72h-.89v-1.07c-.12.14-.25.28-.4.43-.15.15-.32.29-.51.41-.19.12-.42.23-.68.31-.26.08-.56.13-.89.13-.52,0-.95-.07-1.3-.22-.35-.14-.63-.34-.84-.6-.21-.26-.37-.56-.46-.9-.09-.34-.14-.72-.14-1.12v-5.08h.89v5.07c0,.67.15,1.17.46,1.53.31.35.81.53,1.52.53.37,0,.7-.07.99-.22.29-.14.54-.34.74-.6.2-.26.35-.57.46-.92.11-.36.16-.75.16-1.18v-4.2Z"/>
    <path class="st0" d="M155.98,66.58c-.11.02-.25.05-.43.1-.18.05-.38.07-.6.07-.45,0-.79-.11-1.02-.34-.23-.22-.35-.62-.35-1.2v-5.65h-1.09v-.75h1.09v-2.15h.89v2.15h1.45v.75h-1.45v5.29c0,.19,0,.35.01.49,0,.14.04.25.09.34.05.09.13.15.23.19.1.04.25.06.44.06.12,0,.24,0,.37-.03.12-.02.25-.04.37-.07v.73Z"/>
    <path class="st0" d="M160.48,66.75c-.5-.01-.96-.1-1.39-.27-.43-.17-.81-.42-1.13-.76s-.58-.76-.77-1.27c-.19-.51-.28-1.1-.28-1.77,0-.57.07-1.1.22-1.59.15-.49.37-.92.67-1.29.3-.37.67-.66,1.12-.87.45-.21.97-.32,1.56-.32s1.13.11,1.58.32c.45.21.82.5,1.12.86.3.36.52.79.66,1.29.14.5.22,1.03.22,1.59,0,.62-.08,1.17-.25,1.67-.17.5-.41.92-.72,1.28-.31.36-.69.63-1.13.83-.44.19-.93.29-1.47.29M163.1,62.69c0-.46-.05-.88-.15-1.28-.1-.4-.25-.74-.46-1.04-.21-.29-.48-.52-.8-.69-.33-.17-.73-.25-1.21-.25s-.87.09-1.2.28-.6.43-.81.73c-.21.3-.36.65-.46,1.04-.1.39-.15.8-.15,1.21,0,.48.06.92.17,1.32.11.4.28.75.5,1.04.22.29.49.51.82.67.33.16.71.24,1.13.24.47,0,.87-.09,1.2-.28.33-.18.6-.43.81-.74.21-.31.36-.66.46-1.04s.15-.79.15-1.21"/>
    <path class="st0" d="M166.63,66.55h-.89v-7.72h.89v1.45h.03c.25-.62.57-1.05.96-1.29.39-.24.91-.36,1.56-.36v.97c-.51,0-.92.07-1.25.24-.33.17-.59.4-.78.69-.19.29-.33.63-.4,1.02-.07.39-.11.8-.11,1.23v3.78Z"/>
    <path class="st0" d="M174.2,62.05c.17-.02.37-.05.6-.09.23-.04.42-.09.57-.16.15-.07.24-.19.28-.35.03-.16.05-.32.05-.45,0-.46-.15-.83-.44-1.12s-.79-.44-1.48-.44c-.31,0-.59.03-.85.08-.26.05-.48.15-.68.28-.19.13-.35.31-.48.54-.12.22-.21.5-.25.84h-.91c.03-.46.13-.85.31-1.17.18-.32.41-.59.69-.79s.61-.35.98-.45c.37-.09.77-.14,1.18-.14.39,0,.75.04,1.09.13.34.08.64.22.89.4.25.18.45.43.6.74.14.31.22.69.22,1.13v4.2c0,.35.06.57.19.66.12.09.37.07.75-.07v.7c-.07.02-.17.05-.31.09-.13.04-.27.06-.39.06-.14,0-.27-.01-.4-.04-.15-.02-.27-.07-.36-.14-.09-.07-.16-.16-.22-.27-.05-.1-.09-.22-.11-.34-.02-.12-.03-.26-.03-.39-.38.42-.81.74-1.3.95s-1.01.33-1.58.33c-.34,0-.66-.04-.98-.13-.31-.09-.59-.23-.83-.42-.24-.19-.43-.42-.57-.69-.14-.27-.21-.6-.21-.98,0-1.31.9-2.09,2.7-2.32l1.24-.16ZM175.7,62.49c-.38.16-.76.26-1.15.31-.39.05-.77.09-1.16.12-.69.05-1.22.2-1.6.46-.38.26-.57.65-.57,1.18,0,.24.05.44.14.62.09.17.22.32.37.43.15.11.33.2.54.25.2.05.41.08.62.08.36,0,.71-.05,1.04-.13.34-.09.64-.23.9-.41.26-.18.47-.42.63-.7.16-.28.24-.62.24-1.01v-1.21Z"/>
  </g>
  <path class="st1" d="M61.47,51.57c-2.75.42-5.11-.17-7.1-2.04-1.61-1.51-3.28-2.88-5.49-3.42-2.25-.54-4.16,0-5.85,1.62-2.4,2.31-5.14,4.02-8.59,4.19-2.26.11-4.23-.59-5.9-2.15-.68-.63-1.42-1.2-2.12-1.82-.18-.16-.39-.4-.4-.61-.03-1.57-.02-3.13-.02-4.75,1.33-.11,2.53.12,3.6.7,1.27.69,2.44,1.57,3.67,2.33,1.41.87,2.78,1.83,4.26,2.53,2.16,1.02,4.11.53,5.83-1.15.96-.93,1.96-1.84,3.05-2.61,4.04-2.87,7.68-2.79,11.65.17.98.73,1.98,1.43,2.96,2.17.19.14.43.39.43.59.04,1.39.02,2.78.02,4.24"/>
  <path class="st1" d="M61.48,39.65c-1-.57-1.82-1.13-2.71-1.54-2.82-1.29-5.09-.85-7.36,1.25-2.33,2.16-4.93,3.81-8.21,4.05-2.35.17-4.41-.51-6.16-2.12-.7-.65-1.41-1.31-2.2-1.86-2.79-1.93-5.68-2.68-8.74-.4-.01-.13-.06-.25-.02-.28,1.98-2.01,4.09-3.84,6.93-4.49,3-.69,5.51.44,7.88,2.18,1.54,1.13,3.14,2.23,4.83,3.09,2.41,1.22,4.25.79,6.19-1.09,1.77-1.7,3.58-3.38,5.98-4.13.95-.3,1.99-.35,3-.44.18-.02.55.33.56.52.04,1.71.03,3.43.03,5.25"/>
  <path class="st1" d="M26.05,35.01v-5.2c.59.34,1.08.63,1.58.9,2.92,1.58,5.11,1.53,7.41-.87.8-.84,1.72-1.58,2.65-2.27,3.92-2.9,7.93-2.81,11.8.16,1.29.99,2.63,1.93,4.03,2.76,1.36.81,2.88,1.41,4.49.91.97-.3,1.83-.92,2.73-1.39-.01-.04.03.03.01.05-2.68,2.81-5.77,4.81-9.82,4.74-2.16-.04-3.98-.93-5.52-2.45-1.44-1.43-3.07-2.58-5.08-3.11-2.28-.6-4.23-.04-5.92,1.61-1.99,1.94-4.26,3.43-7.04,3.99-.39.08-.8.11-1.32.17"/>
  <path class="st1" d="M27.69,56.1c.49.22.98.44,1.48.65,2.08.84,3.91.44,5.55-1.09,1-.93,2-1.88,3.09-2.69,3.95-2.91,7.71-2.86,11.65.06,1.1.81,2.18,1.66,3.34,2.37,2.19,1.34,4.46,2.37,7.09.83-.14.19-.24.43-.41.57-2.36,1.94-4.92,3.39-8.11,3.39-2.25,0-4.07-.88-5.75-2.34-1.2-1.04-2.48-2.05-3.89-2.75-2.75-1.35-5.09-.79-7.35,1.26-1.11,1.01-2.42,1.79-3.65,2.68-.43.31-.78.26-1.12-.18-.68-.88-1.38-1.74-2.08-2.61.05-.06.11-.11.16-.17"/>
  <path class="st1" d="M49.13,65.65c-1.72.87-3.44,1.76-5.17,2.61-.14.07-.4,0-.57-.08-4.23-1.99-8.25-4.32-11.8-7.41-.13-.11-.23-.25-.39-.44,2.29-1.22,4.6-1.43,6.92-.41,1.16.51,2.23,1.24,3.3,1.93,1.12.73,2.17,1.58,3.31,2.28,1.32.8,2.74,1.37,4.35,1.3.02.07.04.15.05.22"/>
</svg>
